<?xml version="1.0" standalone="no"?>
<!DOCTYPE svg PUBLIC "-//W3C//DTD SVG 20010904//EN"
 "http://www.w3.org/TR/2001/REC-SVG-20010904/DTD/svg10.dtd">
<svg version="1.0" xmlns="http://www.w3.org/2000/svg"
 width="24.000000pt" height="24.000000pt" viewBox="0 0 24.000000 24.000000"
 preserveAspectRatio="xMidYMid meet">

<g transform="translate(0.000000,24.000000) scale(0.100000,-0.100000)"
fill="#000000" stroke="none">
<path d="M26 209 c-42 -33 -34 -62 34 -132 l60 -62 61 62 c69 71 74 101 26
137 -27 20 -29 20 -58 3 -28 -15 -33 -15 -52 -2 -28 20 -39 19 -71 -6z m72
-15 c20 -14 24 -14 44 0 28 20 43 20 62 0 25 -25 18 -45 -34 -103 l-50 -55
-50 55 c-52 58 -59 78 -34 103 19 20 34 20 62 0z"/>
</g>
</svg>
